# Blender 3.5.1
# www.blender.org
v 0.000000 0.000000 0.000000
v 0.000000 0.514650 0.000000
v -0.363913 0.363913 0.000000
v -0.514650 0.000000 0.000000
v -0.363913 -0.363913 0.000000
v 0.000000 -0.514650 0.000000
v 0.363913 -0.363913 0.000000
v 0.514650 0.000000 0.000000
v 0.363913 0.363913 0.000000
vn -0.0000 -0.0000 1.0000
vt 0.500000 0.500000
vt 0.500000 1.000000
vt 0.146447 0.853553
vt 0.000000 0.500000
vt 0.146447 0.146447
vt 0.500000 0.000000
vt 0.853553 0.146447
vt 1.000000 0.500000
vt 0.853553 0.853553
s 0
f 1/1/1 2/2/1 3/3/1
f 1/1/1 3/3/1 4/4/1
f 1/1/1 4/4/1 5/5/1
f 1/1/1 5/5/1 6/6/1
f 1/1/1 6/6/1 7/7/1
f 1/1/1 7/7/1 8/8/1
f 1/1/1 8/8/1 9/9/1
f 1/1/1 9/9/1 2/2/1
